<svg width="1500" height="1800" viewBox="0 0 1500 1800" fill="none" xmlns="http://www.w3.org/2000/svg">
<path fill-rule="evenodd" clip-rule="evenodd" d="M1500 400L1100 0H0V1800H1500V400ZM1100 400V141.421L1358.58 400H1100ZM1000 500H1400V1700H100V100H1000V500Z" fill="white"/>
<rect x="578" y="653" width="100" height="244" fill="white"/>
<rect x="845" y="653" width="100" height="244" fill="white"/>
<path d="M1167.82 1035.36C1157.35 1136.88 1109.66 1230.94 1033.94 1299.38C958.227 1367.83 859.848 1405.81 757.782 1406C655.716 1406.19 557.194 1368.58 481.217 1300.43C405.241 1232.27 357.193 1138.4 346.341 1036.91L456.078 1025.18C464.03 1099.55 499.239 1168.34 554.913 1218.28C610.586 1268.22 682.781 1295.78 757.573 1295.64C832.365 1295.5 904.455 1267.66 959.939 1217.51C1015.42 1167.36 1050.37 1098.44 1058.04 1024.04L1167.82 1035.36Z" fill="white"/>
</svg>
