<svg width="1500" height="1800" viewBox="0 0 1500 1800" fill="none" xmlns="http://www.w3.org/2000/svg">
<path d="M450 779.289L564.645 664.645L635.355 735.355L520.711 850L635.355 964.645L564.645 1035.36L450 920.711L335.355 1035.36L264.645 964.645L379.289 850L264.645 735.355L335.355 664.645L450 779.289Z" fill="white"/>
<path d="M1164.64 664.645L1050 779.289L935.355 664.645L864.645 735.355L979.289 850L864.645 964.645L935.355 1035.36L1050 920.711L1164.64 1035.36L1235.36 964.645L1120.71 850L1235.36 735.355L1164.64 664.645Z" fill="white"/>
<path fill-rule="evenodd" clip-rule="evenodd" d="M700 1300H300V1200H1200V1300H1100C1100 1410.46 1010.46 1500 900 1500C789.543 1500 700 1410.46 700 1300ZM800 1300C800 1355.23 844.772 1400 900 1400C955.228 1400 1000 1355.23 1000 1300H800Z" fill="white"/>
<path fill-rule="evenodd" clip-rule="evenodd" d="M1100 0L1500 400V1800H0V0H1100ZM1100 141.421V400H1358.58L1100 141.421ZM1400 500H1000V100H100V1700H1400V500Z" fill="white"/>
</svg>
