<svg width="496" height="496" viewBox="0 0 496 496" fill="none" xmlns="http://www.w3.org/2000/svg">
<path fill-rule="evenodd" clip-rule="evenodd" d="M131.782 1.82992C127.254 3.46729 111.812 18.0003 65.4802 64.228C32.2606 97.3732 3.98869 126.51 2.65416 128.977C1.25081 131.568 0.257398 136.776 0.300785 141.306C0.363621 148.021 1.45578 150.922 7.89802 161.492C24.3776 188.532 30.754 206.219 33.8106 233.378C37.6047 267.074 29.605 299.865 9.66193 332.367C0.659851 347.039 -1.46612 354.578 0.888754 363.47C2.32951 368.913 10.4205 377.617 63.3153 430.633C96.7533 464.148 126.393 492.637 129.214 493.975C132.723 495.639 137.003 496.215 142.765 495.799C149.955 495.279 153.32 493.854 165.772 486.05C192.214 469.477 216.126 462.739 248.394 462.771C279.175 462.799 303.159 469.162 326.656 483.532C332.983 487.401 340.492 491.808 343.339 493.323C350.143 496.942 361.412 496.885 368.517 493.194C375.688 489.471 492.341 372.558 494.422 367.009C495.289 364.694 496 359.265 496 354.943C496 348.353 495.028 345.538 489.966 337.47C479.384 320.606 470.669 301.378 466.633 285.985C463.298 273.266 462.701 267.792 462.64 249.35C462.535 218.159 468.837 194.247 483.448 170.382C487.32 164.058 491.729 156.553 493.244 153.708C496.579 147.442 496.902 134.269 493.861 128.528C492.683 126.308 464.239 97.1131 430.65 63.6508C385.465 18.6373 368.412 2.55963 365.091 1.84487C362.622 1.31254 359.721 0.603757 358.644 0.26731C354.151 -1.13081 343.051 3.04262 330.773 10.7465C305.382 26.6791 279.748 33.9389 248.705 33.9912C218.412 34.0435 193.382 27.3341 169.484 12.7547C162.69 8.61119 155.449 4.36448 153.391 3.31627C147.16 0.141706 138.158 -0.477355 131.782 1.82992ZM176.506 191.598C212.048 209.154 222.895 254.676 199.081 286.34C166.749 329.327 98.429 314.456 86.7279 261.884C79.6573 230.125 98.034 198.153 129.312 187.794C135.742 185.663 140.902 185.148 151.565 185.578C163.924 186.073 166.659 186.733 176.506 191.598ZM375.462 190.766C411.459 207.602 423.801 250.476 402.124 283.386C384.205 310.592 348.786 319.228 319.091 303.631C306.849 297.202 298.31 288.106 292.001 274.77C286.087 262.269 284.673 242.419 288.791 229.692C294.026 213.51 306.009 199.349 320.815 191.852C331.754 186.31 337.986 185.098 352.634 185.66C363.352 186.071 367.326 186.961 375.462 190.766Z" fill="white"/>
</svg>
