
<svg width="20" height="20" viewBox="0 0 20 20" fill="none" xmlns="http://www.w3.org/2000/svg">
<path fill-rule="evenodd" clip-rule="evenodd" d="M5.31378 0.0737871C5.13123 0.13981 4.50853 0.725818 2.64033 2.58984C1.30083 3.92634 0.160834 5.10119 0.107023 5.20068C0.050436 5.30517 0.0103789 5.51518 0.0121284 5.69781C0.0146621 5.9686 0.0587007 6.08557 0.318468 6.51179C0.982969 7.60211 1.24008 8.31528 1.36333 9.41042C1.51632 10.7691 1.19375 12.0913 0.389594 13.4019C0.0266069 13.9935 -0.0591177 14.2975 0.0358369 14.656C0.0939317 14.8755 0.42018 15.2265 2.55304 17.3642C3.90134 18.7156 5.09648 19.8644 5.21026 19.9183C5.35172 19.9855 5.52432 20.0087 5.75664 19.9919C6.04657 19.9709 6.18224 19.9135 6.68434 19.5988C7.75056 18.9305 8.71477 18.6588 10.0159 18.6601C11.2571 18.6613 12.2242 18.9178 13.1716 19.4972C13.4267 19.6533 13.7295 19.831 13.8443 19.8921C14.1187 20.038 14.5731 20.0357 14.8595 19.8869C15.1487 19.7367 19.8524 15.0225 19.9364 14.7987C19.9713 14.7054 20 14.4865 20 14.3122C20 14.0465 19.9608 13.933 19.7567 13.6077C19.33 12.9277 18.9786 12.1523 18.8158 11.5317C18.6814 11.0188 18.6573 10.7981 18.6548 10.0544C18.6506 8.79674 18.9047 7.83256 19.4939 6.87025C19.65 6.61526 19.8278 6.31264 19.8889 6.1979C20.0233 5.94526 20.0364 5.41406 19.9137 5.18259C19.8663 5.09305 18.7193 3.91585 17.3649 2.56657C15.5429 0.751504 14.8553 0.103211 14.7214 0.07439C14.6219 0.0529249 14.5049 0.024345 14.4614 0.0107786C14.2803 -0.0455973 13.8327 0.122686 13.3376 0.433326C12.3138 1.07577 11.2802 1.3685 10.0284 1.37061C8.80695 1.37272 7.79768 1.10218 6.83402 0.514303C6.56007 0.347225 6.26809 0.175987 6.18514 0.13372C5.93388 0.00571394 5.57089 -0.0192482 5.31378 0.0737871ZM7.11719 7.72572C8.55032 8.43364 8.98769 10.2692 8.02746 11.546C6.72374 13.2793 3.96891 12.6797 3.49709 10.5598C3.21199 9.27922 3.95298 7.99005 5.21418 7.57232C5.47346 7.4864 5.68153 7.46566 6.11148 7.48297C6.60984 7.50292 6.72012 7.52958 7.11719 7.72572ZM15.1396 7.69219C16.5911 8.37105 17.0887 10.0998 16.2147 11.4269C15.4921 12.5239 14.064 12.8721 12.8666 12.2432C12.3729 11.9839 12.0286 11.6172 11.7742 11.0794C11.5358 10.5754 11.4788 9.77496 11.6448 9.26179C11.8559 8.60928 12.3391 8.03828 12.9361 7.73597C13.3772 7.51251 13.6285 7.46361 14.2191 7.48628C14.6513 7.50286 14.8115 7.53874 15.1396 7.69219Z" fill="white"/>
</svg>
