<svg width="341" height="341" viewBox="0 0 341 341" fill="none" xmlns="http://www.w3.org/2000/svg">
<path d="M8 170.5V333H170.5M170.5 7.99998H333V170.5" stroke="#F6C244" stroke-width="15.8571"/>
<path d="M54.4279 170.501L54.4279 54.4291H170.499M170.499 286.572H286.571V170.501" stroke="#283CDB" stroke-width="15.8571"/>
<rect x="77.6433" y="263.355" width="92.8571" height="92.8571" transform="rotate(-90 77.6433 263.355)" fill="#F6C244"/>
<rect x="170.502" y="170.499" width="92.8571" height="92.8571" transform="rotate(-90 170.502 170.499)" fill="#F6C244"/>
<mask id="path-5-outside-1_182_524" maskUnits="userSpaceOnUse" x="93" y="32" width="155" height="246" fill="black">
<rect fill="white" x="93" y="32" width="155" height="246"/>
<path fill-rule="evenodd" clip-rule="evenodd" d="M172.271 44.8523C174.848 48.2112 177.411 54.5189 178.036 59.0403C178.655 63.5141 178.196 77.4651 176.859 94.7786C176.438 100.237 176.076 110.735 176.055 118.107C176.009 134.147 176.91 139.613 182.277 155.812C185.151 164.486 191.594 178.905 193.41 180.723C194.278 181.592 202.813 179.379 205.006 177.717C210.155 173.812 210.853 166.068 206.469 161.463C204.107 158.981 201.916 158.014 198.656 158.014H195.799L196.159 156.034C196.502 154.142 197.225 148.197 200.513 120.239C202.54 102.999 203.743 98.1399 208.246 89.0186C212.239 80.9281 216.882 74.7715 223.823 68.3651C226.947 65.4814 235.584 59.3126 236.496 59.3126C236.773 59.3126 237 95.0917 237 138.822V218.331H218.442H199.884L198.781 222.748C197.339 228.517 191.919 239.489 187.934 244.702C186.197 246.974 183.08 250.264 181.009 252.013C178.937 253.761 175.69 256.723 173.793 258.596L170.344 262L167.632 259.205C166.142 257.668 162.638 254.381 159.848 251.901C151.532 244.513 145.082 234.108 142.273 223.554L140.964 218.636L122.481 218.474L104 218.313V138.813C104 95.0875 104.16 59.3126 104.355 59.3126C104.551 59.3126 107.171 60.9869 110.176 63.0334C125.06 73.1667 135.726 90.0903 138.616 108.156C139.639 114.555 144.468 154.565 144.458 156.567C144.452 157.694 144.02 157.898 141.125 158.137C135.208 158.625 131.581 162.734 131.581 168.951C131.581 174.665 135.143 178.738 141.197 179.947C143.155 180.338 145.314 180.786 145.994 180.942C147.033 181.181 147.777 180.184 150.689 174.647C156.3 163.977 161.536 148.415 163.768 135.775C165.043 128.551 165.015 110.83 163.699 93.1683C163.148 85.773 162.66 74.788 162.615 68.7562C162.545 59.4436 162.709 57.2521 163.707 54.2289C164.946 50.474 168.963 43.3718 170.052 43.0111C170.406 42.8935 171.404 43.7227 172.271 44.8523ZM221.237 87.9134C218.056 92.7077 215.221 99.1123 213.806 104.704C213.127 107.384 211.533 118.463 210.261 129.325L207.95 149.072L209.451 150.04C212.967 152.307 216.289 155.991 218.084 159.614L220.007 163.497H222.987H225.968L225.954 122.524L225.941 81.5508L224.689 83.074C224.001 83.9117 222.448 86.0892 221.237 87.9134ZM114.568 122.829L114.726 163.192L117.85 163.373L120.974 163.554L122.214 160.632C124.081 156.23 127.876 151.961 132.054 149.563C133.25 148.876 128.467 109.668 126.327 102.625C123.966 94.8493 116.992 82.4647 114.976 82.4647C114.634 82.4647 114.473 98.4537 114.568 122.829ZM167.713 163.497C166.582 166.68 164.057 172.426 162.102 176.265C160.147 180.104 158.548 183.405 158.548 183.602C158.548 183.798 160.056 184.693 161.899 185.592C163.742 186.491 166.327 188.192 167.643 189.374C168.959 190.556 170.247 191.523 170.506 191.523C170.764 191.523 172.2 190.402 173.694 189.032C175.19 187.662 177.703 185.981 179.279 185.297C180.856 184.614 182.222 183.991 182.315 183.914C182.409 183.836 180.712 180.239 178.545 175.919C176.378 171.6 173.71 165.516 172.617 162.397C171.524 159.279 170.436 156.949 170.199 157.219C169.963 157.488 168.844 160.314 167.713 163.497ZM218.656 176.749C217.431 180.174 213.941 184.604 210.736 186.798C209.169 187.871 205.819 189.352 203.29 190.09C200.214 190.987 198.765 191.697 198.908 192.239C199.477 194.378 200.834 203.632 200.836 205.384L200.839 207.364H213.403H225.968V190.914V174.464H222.72C219.521 174.464 219.46 174.498 218.656 176.749ZM114.419 190.914V207.364H127.29H140.161L140.166 204.47C140.169 202.878 140.48 199.794 140.859 197.616C141.985 191.136 142.036 191.319 138.878 190.535C131.223 188.636 125.502 184.232 122.738 178.11L121.093 174.464H117.756H114.419V190.914ZM181.817 196.179C179.002 198.031 176.62 201.671 175.993 205.079L175.573 207.364H182.69H189.806V204.735C189.806 202.05 188.722 195.292 188.141 194.356C187.618 193.514 184.505 194.411 181.817 196.179ZM152.05 197.007C151.68 198.515 151.183 201.462 150.948 203.556L150.52 207.364H157.598H164.677V205.512C164.677 201.897 161.281 197.218 157.016 194.959C154.029 193.376 152.822 193.874 152.05 197.007ZM175.71 229.888C175.71 239.661 175.845 241.393 176.587 241.11C177.517 240.755 182.825 233.373 184.521 230.076C185.747 227.69 188.581 219.973 188.581 219.019C188.581 218.551 186.517 218.331 182.145 218.331H175.71V229.888ZM152.705 220.616C153.704 226.02 157.967 234.255 162.312 239.171L164.625 241.788L164.651 230.059L164.677 218.331H158.48H152.283L152.705 220.616Z"/>
</mask>
<path fill-rule="evenodd" clip-rule="evenodd" d="M172.271 44.8523C174.848 48.2112 177.411 54.5189 178.036 59.0403C178.655 63.5141 178.196 77.4651 176.859 94.7786C176.438 100.237 176.076 110.735 176.055 118.107C176.009 134.147 176.91 139.613 182.277 155.812C185.151 164.486 191.594 178.905 193.41 180.723C194.278 181.592 202.813 179.379 205.006 177.717C210.155 173.812 210.853 166.068 206.469 161.463C204.107 158.981 201.916 158.014 198.656 158.014H195.799L196.159 156.034C196.502 154.142 197.225 148.197 200.513 120.239C202.54 102.999 203.743 98.1399 208.246 89.0186C212.239 80.9281 216.882 74.7715 223.823 68.3651C226.947 65.4814 235.584 59.3126 236.496 59.3126C236.773 59.3126 237 95.0917 237 138.822V218.331H218.442H199.884L198.781 222.748C197.339 228.517 191.919 239.489 187.934 244.702C186.197 246.974 183.08 250.264 181.009 252.013C178.937 253.761 175.69 256.723 173.793 258.596L170.344 262L167.632 259.205C166.142 257.668 162.638 254.381 159.848 251.901C151.532 244.513 145.082 234.108 142.273 223.554L140.964 218.636L122.481 218.474L104 218.313V138.813C104 95.0875 104.16 59.3126 104.355 59.3126C104.551 59.3126 107.171 60.9869 110.176 63.0334C125.06 73.1667 135.726 90.0903 138.616 108.156C139.639 114.555 144.468 154.565 144.458 156.567C144.452 157.694 144.02 157.898 141.125 158.137C135.208 158.625 131.581 162.734 131.581 168.951C131.581 174.665 135.143 178.738 141.197 179.947C143.155 180.338 145.314 180.786 145.994 180.942C147.033 181.181 147.777 180.184 150.689 174.647C156.3 163.977 161.536 148.415 163.768 135.775C165.043 128.551 165.015 110.83 163.699 93.1683C163.148 85.773 162.66 74.788 162.615 68.7562C162.545 59.4436 162.709 57.2521 163.707 54.2289C164.946 50.474 168.963 43.3718 170.052 43.0111C170.406 42.8935 171.404 43.7227 172.271 44.8523ZM221.237 87.9134C218.056 92.7077 215.221 99.1123 213.806 104.704C213.127 107.384 211.533 118.463 210.261 129.325L207.95 149.072L209.451 150.04C212.967 152.307 216.289 155.991 218.084 159.614L220.007 163.497H222.987H225.968L225.954 122.524L225.941 81.5508L224.689 83.074C224.001 83.9117 222.448 86.0892 221.237 87.9134ZM114.568 122.829L114.726 163.192L117.85 163.373L120.974 163.554L122.214 160.632C124.081 156.23 127.876 151.961 132.054 149.563C133.25 148.876 128.467 109.668 126.327 102.625C123.966 94.8493 116.992 82.4647 114.976 82.4647C114.634 82.4647 114.473 98.4537 114.568 122.829ZM167.713 163.497C166.582 166.68 164.057 172.426 162.102 176.265C160.147 180.104 158.548 183.405 158.548 183.602C158.548 183.798 160.056 184.693 161.899 185.592C163.742 186.491 166.327 188.192 167.643 189.374C168.959 190.556 170.247 191.523 170.506 191.523C170.764 191.523 172.2 190.402 173.694 189.032C175.19 187.662 177.703 185.981 179.279 185.297C180.856 184.614 182.222 183.991 182.315 183.914C182.409 183.836 180.712 180.239 178.545 175.919C176.378 171.6 173.71 165.516 172.617 162.397C171.524 159.279 170.436 156.949 170.199 157.219C169.963 157.488 168.844 160.314 167.713 163.497ZM218.656 176.749C217.431 180.174 213.941 184.604 210.736 186.798C209.169 187.871 205.819 189.352 203.29 190.09C200.214 190.987 198.765 191.697 198.908 192.239C199.477 194.378 200.834 203.632 200.836 205.384L200.839 207.364H213.403H225.968V190.914V174.464H222.72C219.521 174.464 219.46 174.498 218.656 176.749ZM114.419 190.914V207.364H127.29H140.161L140.166 204.47C140.169 202.878 140.48 199.794 140.859 197.616C141.985 191.136 142.036 191.319 138.878 190.535C131.223 188.636 125.502 184.232 122.738 178.11L121.093 174.464H117.756H114.419V190.914ZM181.817 196.179C179.002 198.031 176.62 201.671 175.993 205.079L175.573 207.364H182.69H189.806V204.735C189.806 202.05 188.722 195.292 188.141 194.356C187.618 193.514 184.505 194.411 181.817 196.179ZM152.05 197.007C151.68 198.515 151.183 201.462 150.948 203.556L150.52 207.364H157.598H164.677V205.512C164.677 201.897 161.281 197.218 157.016 194.959C154.029 193.376 152.822 193.874 152.05 197.007ZM175.71 229.888C175.71 239.661 175.845 241.393 176.587 241.11C177.517 240.755 182.825 233.373 184.521 230.076C185.747 227.69 188.581 219.973 188.581 219.019C188.581 218.551 186.517 218.331 182.145 218.331H175.71V229.888ZM152.705 220.616C153.704 226.02 157.967 234.255 162.312 239.171L164.625 241.788L164.651 230.059L164.677 218.331H158.48H152.283L152.705 220.616Z" fill="white"/>
<path fill-rule="evenodd" clip-rule="evenodd" d="M172.271 44.8523C174.848 48.2112 177.411 54.5189 178.036 59.0403C178.655 63.5141 178.196 77.4651 176.859 94.7786C176.438 100.237 176.076 110.735 176.055 118.107C176.009 134.147 176.91 139.613 182.277 155.812C185.151 164.486 191.594 178.905 193.41 180.723C194.278 181.592 202.813 179.379 205.006 177.717C210.155 173.812 210.853 166.068 206.469 161.463C204.107 158.981 201.916 158.014 198.656 158.014H195.799L196.159 156.034C196.502 154.142 197.225 148.197 200.513 120.239C202.54 102.999 203.743 98.1399 208.246 89.0186C212.239 80.9281 216.882 74.7715 223.823 68.3651C226.947 65.4814 235.584 59.3126 236.496 59.3126C236.773 59.3126 237 95.0917 237 138.822V218.331H218.442H199.884L198.781 222.748C197.339 228.517 191.919 239.489 187.934 244.702C186.197 246.974 183.08 250.264 181.009 252.013C178.937 253.761 175.69 256.723 173.793 258.596L170.344 262L167.632 259.205C166.142 257.668 162.638 254.381 159.848 251.901C151.532 244.513 145.082 234.108 142.273 223.554L140.964 218.636L122.481 218.474L104 218.313V138.813C104 95.0875 104.16 59.3126 104.355 59.3126C104.551 59.3126 107.171 60.9869 110.176 63.0334C125.06 73.1667 135.726 90.0903 138.616 108.156C139.639 114.555 144.468 154.565 144.458 156.567C144.452 157.694 144.02 157.898 141.125 158.137C135.208 158.625 131.581 162.734 131.581 168.951C131.581 174.665 135.143 178.738 141.197 179.947C143.155 180.338 145.314 180.786 145.994 180.942C147.033 181.181 147.777 180.184 150.689 174.647C156.3 163.977 161.536 148.415 163.768 135.775C165.043 128.551 165.015 110.83 163.699 93.1683C163.148 85.773 162.66 74.788 162.615 68.7562C162.545 59.4436 162.709 57.2521 163.707 54.2289C164.946 50.474 168.963 43.3718 170.052 43.0111C170.406 42.8935 171.404 43.7227 172.271 44.8523ZM221.237 87.9134C218.056 92.7077 215.221 99.1123 213.806 104.704C213.127 107.384 211.533 118.463 210.261 129.325L207.95 149.072L209.451 150.04C212.967 152.307 216.289 155.991 218.084 159.614L220.007 163.497H222.987H225.968L225.954 122.524L225.941 81.5508L224.689 83.074C224.001 83.9117 222.448 86.0892 221.237 87.9134ZM114.568 122.829L114.726 163.192L117.85 163.373L120.974 163.554L122.214 160.632C124.081 156.23 127.876 151.961 132.054 149.563C133.25 148.876 128.467 109.668 126.327 102.625C123.966 94.8493 116.992 82.4647 114.976 82.4647C114.634 82.4647 114.473 98.4537 114.568 122.829ZM167.713 163.497C166.582 166.68 164.057 172.426 162.102 176.265C160.147 180.104 158.548 183.405 158.548 183.602C158.548 183.798 160.056 184.693 161.899 185.592C163.742 186.491 166.327 188.192 167.643 189.374C168.959 190.556 170.247 191.523 170.506 191.523C170.764 191.523 172.2 190.402 173.694 189.032C175.19 187.662 177.703 185.981 179.279 185.297C180.856 184.614 182.222 183.991 182.315 183.914C182.409 183.836 180.712 180.239 178.545 175.919C176.378 171.6 173.71 165.516 172.617 162.397C171.524 159.279 170.436 156.949 170.199 157.219C169.963 157.488 168.844 160.314 167.713 163.497ZM218.656 176.749C217.431 180.174 213.941 184.604 210.736 186.798C209.169 187.871 205.819 189.352 203.29 190.09C200.214 190.987 198.765 191.697 198.908 192.239C199.477 194.378 200.834 203.632 200.836 205.384L200.839 207.364H213.403H225.968V190.914V174.464H222.72C219.521 174.464 219.46 174.498 218.656 176.749ZM114.419 190.914V207.364H127.29H140.161L140.166 204.47C140.169 202.878 140.48 199.794 140.859 197.616C141.985 191.136 142.036 191.319 138.878 190.535C131.223 188.636 125.502 184.232 122.738 178.11L121.093 174.464H117.756H114.419V190.914ZM181.817 196.179C179.002 198.031 176.62 201.671 175.993 205.079L175.573 207.364H182.69H189.806V204.735C189.806 202.05 188.722 195.292 188.141 194.356C187.618 193.514 184.505 194.411 181.817 196.179ZM152.05 197.007C151.68 198.515 151.183 201.462 150.948 203.556L150.52 207.364H157.598H164.677V205.512C164.677 201.897 161.281 197.218 157.016 194.959C154.029 193.376 152.822 193.874 152.05 197.007ZM175.71 229.888C175.71 239.661 175.845 241.393 176.587 241.11C177.517 240.755 182.825 233.373 184.521 230.076C185.747 227.69 188.581 219.973 188.581 219.019C188.581 218.551 186.517 218.331 182.145 218.331H175.71V229.888ZM152.705 220.616C153.704 226.02 157.967 234.255 162.312 239.171L164.625 241.788L164.651 230.059L164.677 218.331H158.48H152.283L152.705 220.616Z" stroke="black" stroke-width="22" mask="url(#path-5-outside-1_182_524)"/>
</svg>
